<svg xmlns="http://www.w3.org/2000/svg" width="17" height="17"><path d="M0 0 C1.93166016 0.01740234 1.93166016 0.01740234 3.90234375 0.03515625 C5.19269531 0.04417969 6.48304687 0.05320312 7.8125 0.0625 C8.81152344 0.07410156 9.81054688 0.08570313 10.83984375 0.09765625 C10.83984375 3.72765625 10.83984375 7.35765625 10.83984375 11.09765625 C6.21984375 11.09765625 1.59984375 11.09765625 -3.16015625 11.09765625 C-3.16015625 10.43765625 -3.16015625 9.77765625 -3.16015625 9.09765625 C-4.15015625 8.76765625 -5.14015625 8.43765625 -6.16015625 8.09765625 C-3.98529224 0.12315489 -3.98529224 0.12315489 0 0 Z " fill="#313E88" transform="translate(6.16015625,4.90234375)"></path><path d="M0 0 C0.680625 -0.00257812 1.36125 -0.00515625 2.0625 -0.0078125 C4 0.125 4 0.125 7 1.125 C7 1.785 7 2.445 7 3.125 C2.38 3.125 -2.24 3.125 -7 3.125 C-7 2.465 -7 1.805 -7 1.125 C-4.32356043 0.23285348 -2.74615622 -0.01040211 0 0 Z " fill="#323E88" transform="translate(10,0.875)"></path></svg>