<svg xmlns="http://www.w3.org/2000/svg" width="26" height="26"><path d="M0 0 C2.75 0.25 2.75 0.25 5 1 C4.58467322 3.90728744 4.2335117 4.81456423 1.875 6.6875 C-0.40159081 8.95363357 -0.40159081 8.95363357 0.265625 12.453125 C0.75289062 14.33257813 0.75289062 14.33257813 1.25 16.25 C1.56453125 17.51328125 1.8790625 18.7765625 2.203125 20.078125 C2.46609375 21.04234375 2.7290625 22.0065625 3 23 C1.02 23.99 1.02 23.99 -1 25 C-2.65 22.36 -4.3 19.72 -6 17 C-10.23891822 18.53743278 -10.23891822 18.53743278 -11.0625 22.0625 C-11.371875 23.031875 -11.68125 24.00125 -12 25 C-12.99 25.33 -13.98 25.66 -15 26 C-15.2475 25.21625 -15.495 24.4325 -15.75 23.625 C-17.15389099 20.67682892 -18.00675737 20.0975223 -21 19 C-20.505 17.515 -20.505 17.515 -20 16 C-18.00428677 15.32060826 -16.00405227 14.65438441 -14 14 C-13.34 13.01 -12.68 12.02 -12 11 C-14.97 9.02 -17.94 7.04 -21 5 C-20.34 4.01 -19.68 3.02 -19 2 C-17.824375 2.144375 -16.64875 2.28875 -15.4375 2.4375 C-14.34501953 2.56511719 -14.34501953 2.56511719 -13.23046875 2.6953125 C-11.22115502 2.96978968 -9.23198612 3.38306967 -7.25 3.8125 C-6.1775 3.874375 -5.105 3.93625 -4 4 C-2.62689293 2.70766393 -1.28965176 1.37562854 0 0 Z " fill="#3A448F" transform="translate(21,0)"></path></svg>